<?xml version="1.0" encoding="utf-8"?>
<svg viewBox="67.202 85.9683 274.3194 85.3718" width="200" height="60" xmlns="http://www.w3.org/2000/svg">
  <defs>
    <linearGradient gradientUnits="userSpaceOnUse" x1="84.133" y1="89.783" x2="84.133" y2="129.783" id="gradient-0">
      <stop offset="0" style="stop-color: rgb(24.706% 24.706% 24.706%)"/>
      <stop offset="1" style="stop-color: rgb(15.584% 15.584% 15.584%)"/>
    </linearGradient>
    <style>@import url(https://fonts.googleapis.com/css2?family=Aleo%3Aital%2Cwght%400%2C100..900%3B1%2C100..900&amp;display=swap);</style>
  </defs>
  <circle cx="97.133" cy="124.783" r="35" style="fill: rgb(175, 175, 175);" transform="matrix(0.8390810489654541, 0, 0, 0.8229879140853882, 15.067381858825698, 23.214466094970703)"/>
  <circle cx="84.133" cy="109.783" r="20" style="fill: url('#gradient-0');" transform="matrix(0.8390810489654541, 0, 0, 0.8229879140853882, 15.067381858825698, 23.214466094970703)"/>
  <path d="M 83.984 117.68 L 88.179 113.565 L 83.984 109.45" fill="#FFCC66" style="" transform="matrix(1, 0, 0, 1, 1.4210854715202004e-14, 0)"/>
  <circle cx="79.133" cy="106.783" r="3" fill="white" style="" transform="matrix(0.8390810489654541, 0, 0, 0.8229879140853882, 15.067381858825698, 23.214466094970703)"/>
  <circle cx="89.133" cy="106.783" r="3" fill="white" style="" transform="matrix(0.8390810489654541, 0, 0, 0.8229879140853882, 15.067381858825698, 23.214466094970703)"/>
  <rect x="89.602" y="130.537" width="20.407" height="12.046" fill="black" style="" transform="matrix(1, 0, 0, 1, 1.4210854715202004e-14, 0)"/>
  <line x1="88.179" y1="134.139" x2="85.662" y2="138.254" stroke="#3F3F3F" style="" transform="matrix(1, 0, 0, 1, 1.4210854715202004e-14, 0)"/>
  <text style="fill: rgb(51, 51, 51); font-family: Aleo; font-size: 28px;" transform="matrix(2.4651730060577393, 0, 0, 2.5389389991760254, -208.32769775390625, -246.15667724609375)" x="139.41" y="156.166">KIWIS</text>
  <ellipse style="fill-rule: nonzero; paint-order: fill; stroke: rgba(0, 0, 0, 0); fill: rgb(52, 52, 52);" cx="103.327" cy="129.636" rx="4.903" ry="7.889" transform="matrix(1, 0, 0, 1, 1.4210854715202004e-14, 0)"/>
</svg>