<svg viewBox="0 0 72 72" xmlns="http://www.w3.org/2000/svg"><g style="fill:none;stroke:#000;stroke-linecap:round;stroke-linejoin:round;stroke-miterlimit:10;stroke-width:2"><path d="m47.6321 55.4945c9.0883 0 16.4558-7.3675 16.4558-16.4558s-7.3675-16.4558-16.4558-16.4558"/><path d="m46.7585 55.4945h-12"/><path d="m34.4651 48.5022c-1.9313.081-3.4313 1.7123-3.3502 3.6436.081 1.9313 1.7123 3.4313 3.6436 3.3502"/><path d="m34.2322 41.5052c-1.9313.081-3.4312 1.7123-3.3502 3.6436s1.7123 3.4313 3.6436 3.3502"/><path d="m34.0984 41.5093c-1.9268.155-3.3631 1.8426-3.2081 3.7694s1.8426 3.3631 3.7694 3.2081"/><path d="m33.7539 34.4677c-1.929.1237-3.3925 1.7878-3.2688 3.7168s1.7878 3.3925 3.7168 3.2688"/><path d="m35.9776 17.5139c-1.3904-1.3429-3.6061-1.3044-4.949.086s-1.3044 3.6061.086 4.949"/><path d="m11.3816 27.4677c-1.933 0-3.5 1.567-3.5 3.5s1.567 3.5 3.5 3.5"/><path d="m33.7169 34.4677h-22.3353"/><path d="m11.3816 27.4677h27.7906"/><path d="m33.3283 24.5068-2.2138-1.958"/><path d="m38.2972 19.2815c2.1439 1.9526 5.1677 3.3734 9.5218 3.3013"/><path d="m35.9776 17.5139 2.3801 1.8214"/><path d="m47.6473 55.4792c9.0883 0 16.4558-7.3675 16.4558-16.4558s-7.3675-16.4558-16.4558-16.4558"/><path d="m46.7738 55.4792h-12"/><path d="m34.4804 48.4869c-1.9313.081-3.4313 1.7123-3.3502 3.6436.081 1.9313 1.7123 3.4312 3.6436 3.3502"/><path d="m34.2475 41.49c-1.9313.081-3.4312 1.7123-3.3502 3.6436s1.7123 3.4313 3.6436 3.3502"/><path d="m34.1136 41.494c-1.9268.155-3.3631 1.8426-3.2081 3.7694s1.8426 3.3631 3.7694 3.2081"/><path d="m33.7692 34.4524c-1.929.1237-3.3925 1.7878-3.2688 3.7168s1.7878 3.3925 3.7168 3.2688"/><path d="m35.9928 17.4986c-1.3904-1.3429-3.6061-1.3044-4.949.086s-1.3044 3.6061.086 4.949"/><path d="m11.3969 27.4524c-1.933 0-3.5 1.567-3.5 3.5s1.567 3.5 3.5 3.5"/><path d="m33.7321 34.4524h-22.3352"/><path d="m11.3969 27.4524h27.7906"/><path d="m33.3435 24.4916-2.2137-1.958"/><path d="m38.3125 19.2663c2.1439 1.9526 5.1677 3.3734 9.5218 3.3013"/><path d="m35.9928 17.4986 2.3802 1.8214"/></g></svg>